<svg xmlns="http://www.w3.org/2000/svg" viewBox="0 0 1024 1024" width="256" height="256">
	<path d="M640 409.6h192a51.2 51.2 0 0 1 51.2 51.2v224C883.2 780.2368 805.8368 857.6 710.4 857.6H640a102.4 102.4 0 0 1-102.4-102.4V512a102.4 102.4 0 0 1 102.4-102.4z" fill="#FE9025" />
	<path d="M217.6 166.4h409.6a76.8 76.8 0 0 1 76.8 76.8v614.4H217.6a76.8 76.8 0 0 1-76.8-76.8V243.2a76.8 76.8 0 0 1 76.8-76.8z" fill="#1B7AFE" />
	<path d="M243.2 358.4m25.6 0l307.2 0q25.6 0 25.6 25.6l0 0q0 25.6-25.6 25.6l-307.2 0q-25.6 0-25.6-25.6l0 0q0-25.6 25.6-25.6Z" fill="#FFFFFF" />
	<path d="M243.2 486.4m25.6 0l268.8 0q25.6 0 25.6 25.6l0 0q0 25.6-25.6 25.6l-268.8 0q-25.6 0-25.6-25.6l0 0q0-25.6 25.6-25.6Z" fill="#FFFFFF" />
	<path d="M243.2 614.4m25.6 0l217.6 0q25.6 0 25.6 25.6l0 0q0 25.6-25.6 25.6l-217.6 0q-25.6 0-25.6-25.6l0 0q0-25.6 25.6-25.6Z" fill="#FFFFFF" />
</svg>